<svg class="diagram-root" style="background: #f5f6f6" xmlns="http://www.w3.org/2000/svg" xmlns:xlink="http://www.w3.org/1999/xlink"><style>.diagram-root { font-family: "Helvetica Neue", sans-serif; font-size: 12px; } .t { overflow: visible; } .t-bg { y: 40; fill: #fff;   } .th { fill: #005aa0;   } .tht { fill: #fff; font-size: 14px;  } .tf { fill: #323c46; overflow: visible; } .tf.pk { fill: #005aa0; font-weight: bold; } .tf.fk { font-weight: bold; } .ty { fill: #adb1b5; font-weight: normal; text-anchor: end; } .r { fill: transparent; stroke: #c3c3c3; stroke-width: 1; } .l { stroke: 1; } .i { fill: #c2c7ce; stroke: #c2c7ce; } .i.ix { fill: #afb3b6; stroke: #000; } .fa { fill: transparent; overflow: visible; } .fa .bg.hover { fill: #f7f7f7; } .c { cy: 12; r: 4; stroke: #d2d2dc; fill: #d2d2dc; } .hr { fill: transparent; stroke: #323c46; stroke-opacity: 0.035; stroke-width: 13; } .dc { stroke: #fa5a3c; fill: #fa5a3c; } .x { stroke: white; stroke-width: 1; } .hl .th { fill: #1b9bff; } .hl .tht {  } .fhl .bg { fill: #e7f4ff; } .fhls .bg {  } .r.hl { stroke: #1b9bff; } .dim { opacity: 0.25; }</style><g class="drawing-wrapper" transform="translate(38.59181818181817, 0.6072727272726866) scale(1,1)"><g class="rs"><path d="M 515.6 587.6 m -1, 0 a 1,1 0 1,0 2,0 a 1,1 0 1,0 -2,0 M 515.6 587.6 m -0.5, 0 a 0.5,0.5 0 1,0 1,0 a 0.5,0.5 0 1,0 -1,0  M515.6 587.6 L515.6 587.6 527.6 587.6 M 515.6 593.6 m -1, 0 a 1,1 0 1,0 2,0 a 1,1 0 1,0 -2,0 M 515.6 593.6 m -0.5, 0 a 0.5,0.5 0 1,0 1,0 a 0.5,0.5 0 1,0 -1,0  M515.6 593.6 L515.6 593.6 522.6 587.6 515.6 581.6 M 515.6 581.6 m -1, 0 a 1,1 0 1,0 2,0 a 1,1 0 1,0 -2,0 M 515.6 581.6 m -0.5, 0 a 0.5,0.5 0 1,0 1,0 a 0.5,0.5 0 1,0 -1,0  M527.6 587.6 C 869.472 587.6, 760.02 114.5, 710.02 114.5 M 698.02 114.5 m -1, 0 a 1,1 0 1,0 2,0 a 1,1 0 1,0 -2,0 M 698.02 114.5 m -0.5, 0 a 0.5,0.5 0 1,0 1,0 a 0.5,0.5 0 1,0 -1,0  M698.02 114.5 L698.02 114.5 710.02 114.5 M 698.02 120.5 m -1, 0 a 1,1 0 1,0 2,0 a 1,1 0 1,0 -2,0 M 698.02 120.5 m -0.5, 0 a 0.5,0.5 0 1,0 1,0 a 0.5,0.5 0 1,0 -1,0  M698.02 120.5 L698.02 120.5 705.02 114.5 698.02 108.5 M 698.02 108.5 m -1, 0 a 1,1 0 1,0 2,0 a 1,1 0 1,0 -2,0 M 698.02 108.5 m -0.5, 0 a 0.5,0.5 0 1,0 1,0 a 0.5,0.5 0 1,0 -1,0 " id="h3572062790" class="r"></path><path d="M 112.8 86.39 m -1, 0 a 1,1 0 1,0 2,0 a 1,1 0 1,0 -2,0 M 112.8 86.39 m -0.5, 0 a 0.5,0.5 0 1,0 1,0 a 0.5,0.5 0 1,0 -1,0  M112.8 86.39 L112.8 86.39 124.8 86.39 M118.8 92.39 L118.8 92.39 118.8 80.39 M124.8 86.39 Q 170.83 86.39, 216.86 167.15 T 308.91 247.91 M 320.91 247.91 m -1, 0 a 1,1 0 1,0 2,0 a 1,1 0 1,0 -2,0 M 320.91 247.91 m -0.5, 0 a 0.5,0.5 0 1,0 1,0 a 0.5,0.5 0 1,0 -1,0  M320.91 247.91 L320.91 247.91 308.91 247.91 M 320.91 253.91 m -1, 0 a 1,1 0 1,0 2,0 a 1,1 0 1,0 -2,0 M 320.91 253.91 m -0.5, 0 a 0.5,0.5 0 1,0 1,0 a 0.5,0.5 0 1,0 -1,0  M320.91 253.91 L320.91 253.91 313.91 247.91 320.91 241.91 M 320.91 241.91 m -1, 0 a 1,1 0 1,0 2,0 a 1,1 0 1,0 -2,0 M 320.91 241.91 m -0.5, 0 a 0.5,0.5 0 1,0 1,0 a 0.5,0.5 0 1,0 -1,0 " id="h634767023" class="r"></path><path d="M 112.8 111.39 m -1, 0 a 1,1 0 1,0 2,0 a 1,1 0 1,0 -2,0 M 112.8 111.39 m -0.5, 0 a 0.5,0.5 0 1,0 1,0 a 0.5,0.5 0 1,0 -1,0  M112.8 111.39 L112.8 111.39 124.8 111.39 M118.8 117.39 L118.8 117.39 118.8 105.39 M124.8 111.39 Q 232.76 111.39, 340.72 112.95 T 556.63 114.5 M 568.63 114.5 m -1, 0 a 1,1 0 1,0 2,0 a 1,1 0 1,0 -2,0 M 568.63 114.5 m -0.5, 0 a 0.5,0.5 0 1,0 1,0 a 0.5,0.5 0 1,0 -1,0  M568.63 114.5 L568.63 114.5 556.63 114.5 M562.63 120.5 L562.63 120.5 562.63 108.5" id="h3335357949" class="r"></path><path d="M 568.63 89.5 m -1, 0 a 1,1 0 1,0 2,0 a 1,1 0 1,0 -2,0 M 568.63 89.5 m -0.5, 0 a 0.5,0.5 0 1,0 1,0 a 0.5,0.5 0 1,0 -1,0  M568.63 89.5 L568.63 89.5 556.63 89.5 M 568.63 95.5 m -1, 0 a 1,1 0 1,0 2,0 a 1,1 0 1,0 -2,0 M 568.63 95.5 m -0.5, 0 a 0.5,0.5 0 1,0 1,0 a 0.5,0.5 0 1,0 -1,0  M568.63 95.5 L568.63 95.5 561.63 89.5 568.63 83.5 M 568.63 83.5 m -1, 0 a 1,1 0 1,0 2,0 a 1,1 0 1,0 -2,0 M 568.63 83.5 m -0.5, 0 a 0.5,0.5 0 1,0 1,0 a 0.5,0.5 0 1,0 -1,0  M556.63 89.5 Q 538.05 89.5, 519.46 168.71 T 482.29 247.91 M 470.29 247.91 m -1, 0 a 1,1 0 1,0 2,0 a 1,1 0 1,0 -2,0 M 470.29 247.91 m -0.5, 0 a 0.5,0.5 0 1,0 1,0 a 0.5,0.5 0 1,0 -1,0  M470.29 247.91 L470.29 247.91 482.29 247.91 M476.29 253.91 L476.29 253.91 476.29 241.91" id="h106845284" class="r"></path><path d="M 122.11 450.72 m -1, 0 a 1,1 0 1,0 2,0 a 1,1 0 1,0 -2,0 M 122.11 450.72 m -0.5, 0 a 0.5,0.5 0 1,0 1,0 a 0.5,0.5 0 1,0 -1,0  M122.11 450.72 L122.11 450.72 134.11 450.72 M128.11 456.72 L128.11 456.72 128.11 444.72 M134.11 450.72 Q 177.81 450.72, 221.51 349.32 T 308.91 247.91 M 320.91 247.91 m -1, 0 a 1,1 0 1,0 2,0 a 1,1 0 1,0 -2,0 M 320.91 247.91 m -0.5, 0 a 0.5,0.5 0 1,0 1,0 a 0.5,0.5 0 1,0 -1,0  M320.91 247.91 L320.91 247.91 308.91 247.91 M314.91 253.91 L314.91 253.91 314.91 241.91" id="h2967012690" class="r"></path><path d="M 680.45 282.46000000000004 m -1, 0 a 1,1 0 1,0 2,0 a 1,1 0 1,0 -2,0 M 680.45 282.46000000000004 m -0.5, 0 a 0.5,0.5 0 1,0 1,0 a 0.5,0.5 0 1,0 -1,0  M680.45 282.46000000000004 L680.45 282.46000000000004 668.45 282.46000000000004 M 680.45 288.46000000000004 m -1, 0 a 1,1 0 1,0 2,0 a 1,1 0 1,0 -2,0 M 680.45 288.46000000000004 m -0.5, 0 a 0.5,0.5 0 1,0 1,0 a 0.5,0.5 0 1,0 -1,0  M680.45 288.46000000000004 L680.45 288.46000000000004 673.45 282.46000000000004 680.45 276.46000000000004 M 680.45 276.46000000000004 m -1, 0 a 1,1 0 1,0 2,0 a 1,1 0 1,0 -2,0 M 680.45 276.46000000000004 m -0.5, 0 a 0.5,0.5 0 1,0 1,0 a 0.5,0.5 0 1,0 -1,0  M668.45 282.46000000000004 Q 621.91 282.46000000000004, 575.37 277.69 T 482.29 272.90999999999997 M 470.29 272.90999999999997 m -1, 0 a 1,1 0 1,0 2,0 a 1,1 0 1,0 -2,0 M 470.29 272.90999999999997 m -0.5, 0 a 0.5,0.5 0 1,0 1,0 a 0.5,0.5 0 1,0 -1,0  M470.29 272.90999999999997 L470.29 272.90999999999997 482.29 272.90999999999997 M 470.29 278.90999999999997 m -1, 0 a 1,1 0 1,0 2,0 a 1,1 0 1,0 -2,0 M 470.29 278.90999999999997 m -0.5, 0 a 0.5,0.5 0 1,0 1,0 a 0.5,0.5 0 1,0 -1,0  M470.29 278.90999999999997 L470.29 278.90999999999997 477.29 272.90999999999997 470.29 266.90999999999997 M 470.29 266.90999999999997 m -1, 0 a 1,1 0 1,0 2,0 a 1,1 0 1,0 -2,0 M 470.29 266.90999999999997 m -0.5, 0 a 0.5,0.5 0 1,0 1,0 a 0.5,0.5 0 1,0 -1,0 " id="h2657001143" class="r"></path></g><g class="hrs"></g><g class="ts"><svg width="149.38" height="225" x="320.91" y="190.91" id="h3299212598" class="t"><rect height="40" width="149.38" class="th"></rect><text x="13" y="25" class="tht">Employees</text><rect height="185" width="149.38" class="t-bg"></rect><text x="13" y="61" class="tf pk">emp_no<tspan x="136.38" class="ty">varchar</tspan></text><path d="M7,14A2,2 0 0,1 5,12A2,2 0 0,1 7,10A2,2 0 0,1 9,12A2,2 0 0,1 7,14M12.65,10C11.83,7.67 9.61,6 7, 6A6, 6 0 0, 0 1, 12A6, 6 0 0, 0 7, 18C9.61, 18 11.83, 16.33 12.65, 14H17V18H21V14H23V10H12.65Z" class="i pk" transform="translate(76.366328125, 48) scale(0.65)"></path><text x="13" y="86" class="tf fk">emp_title<tspan x="136.38" class="ty">varchar</tspan></text><text x="13" y="111" class="tf">birth_data<tspan x="136.38" class="ty">varchar</tspan></text><text x="13" y="136" class="tf">first_name<tspan x="136.38" class="ty">varchar</tspan></text><text x="13" y="161" class="tf">last_name<tspan x="136.38" class="ty">varchar</tspan></text><text x="13" y="186" class="tf">sex<tspan x="136.38" class="ty">varchar</tspan></text><text x="13" y="211" class="tf">hire_data<tspan x="136.38" class="ty">varchar</tspan></text></svg><svg width="146.06" height="100" x="369.54" y="530.6" id="h475896179" class="t"><rect height="40" width="146.06" class="th"></rect><text x="13" y="25" class="tht">departments</text><rect height="60" width="146.06" class="t-bg"></rect><text x="13" y="61" class="tf fk">dept_no<tspan x="133.06" class="ty">varchar</tspan></text><text x="13" y="86" class="tf">dept_name<tspan x="133.06" class="ty">varchar</tspan></text></svg><svg width="129.39" height="100" x="-16.59" y="29.39" id="h1676682957" class="t"><rect height="40" width="129.39" class="th"></rect><text x="13" y="25" class="tht">dept_manager</text><rect height="60" width="129.39" class="t-bg"></rect><text x="13" y="61" class="tf fk">emp_no<tspan x="116.38999999999999" class="ty">varchar</tspan></text><text x="13" y="86" class="tf fk">dept_no<tspan x="116.38999999999999" class="ty">varchar</tspan></text></svg><svg width="129.39" height="100" x="568.63" y="32.5" id="h1090417462" class="t"><rect height="40" width="129.39" class="th"></rect><text x="13" y="25" class="tht">dept_emp</text><rect height="60" width="129.39" class="t-bg"></rect><text x="13" y="61" class="tf fk">emp_no<tspan x="116.38999999999999" class="ty">varchar</tspan></text><text x="13" y="86" class="tf fk">dept_no<tspan x="116.38999999999999" class="ty">varchar</tspan></text></svg><svg width="129.38" height="100" x="-7.27" y="393.72" id="h2472833127" class="t"><rect height="40" width="129.38" class="th"></rect><text x="13" y="25" class="tht">salaries</text><rect height="60" width="129.38" class="t-bg"></rect><text x="13" y="61" class="tf fk">emp_no<tspan x="116.38" class="ty">varchar</tspan></text><text x="13" y="86" class="tf">salary<tspan x="116.38" class="ty">INT</tspan></text></svg><svg width="120.7" height="100" x="680.45" y="225.46" id="h1006881043" class="t"><rect height="40" width="120.7" class="th"></rect><text x="13" y="25" class="tht">title</text><rect height="60" width="120.7" class="t-bg"></rect><text x="13" y="61" class="tf fk">title_id<tspan x="107.7" class="ty">varchar</tspan></text><text x="13" y="86" class="tf">tile<tspan x="107.7" class="ty">varchar</tspan></text></svg></g></g><text class="qdbd-link" x="10" y="20">www.quickdatabasediagrams.com</text></svg>